<svg xmlns="http://www.w3.org/2000/svg" width="24" height="24" viewBox="0 0 24 24">
  <g id="activities" transform="translate(8154 18435)">
    <rect id="Rectangle_13256" data-name="Rectangle 13256" width="24" height="24" transform="translate(-8154 -18435)" fill="none"/>
    <g id="man-in-hike_1_" data-name="man-in-hike (1)" transform="translate(-8172.184 -18432)">
      <g id="Group_30713" data-name="Group 30713" transform="translate(22.184 1.704)">
        <path id="Path_50461" data-name="Path 50461" d="M42.936,121.589l-.081.757,1.937,2.3.336-2.482a2.358,2.358,0,0,1,.08-.334Z" transform="translate(-42.106 -118.886)" fill="#f96939"/>
        <path id="Path_50462" data-name="Path 50462" d="M34.557,167.947l.1-.749-1.916-2.277-.283,2.657a1.2,1.2,0,0,0,1.066,1.32l1.145.122A2.339,2.339,0,0,1,34.557,167.947Z" transform="translate(-32.08 -160.648)" fill="#f96939"/>
        <path id="Path_50463" data-name="Path 50463" d="M154.653,108.554a.886.886,0,1,0-1.667.6l1.075,2.978a.885.885,0,0,0,.6.554l2.787.766a.886.886,0,1,0,.47-1.709l-2.344-.644Z" transform="translate(-148.194 -105.759)" fill="#f96939"/>
        <path id="Path_50464" data-name="Path 50464" d="M112.659,209.461l-.364-2.514a1.035,1.035,0,0,0-.449-.712l-1.477-.986-.519-.346.009-.059.037-.273-.3-.083a1.478,1.478,0,0,1-1-.923l-.338-.935-1.814,1.027-.1.711a2.943,2.943,0,0,0,.042.858l.421,1.349.565,1.812-.79,3a1.034,1.034,0,1,0,2,.526l.866-3.292a1.033,1.033,0,0,0-.013-.571l-.371-1.189,1.25.834.3,2.058a1.034,1.034,0,0,0,1.022.886,1.054,1.054,0,0,0,.149-.011A1.034,1.034,0,0,0,112.659,209.461Z" transform="translate(-103.282 -196.989)" fill="#f96939"/>
        <path id="Path_50465" data-name="Path 50465" d="M197.66,209.467a.591.591,0,0,0-.827.117l-2.218,2.947a.594.594,0,0,0-.1.195l-.913,3.229-1.4.2a.587.587,0,0,0-.207.07l-4.056,2.29a.591.591,0,1,0,.581,1.029l3.959-2.235,1.671-.239a.591.591,0,0,0,.485-.424l.988-3.492,2.151-2.858A.591.591,0,0,0,197.66,209.467Z" transform="translate(-181.645 -203.464)" fill="#f96939"/>
        <path id="Path_50466" data-name="Path 50466" d="M23.257,49.407l2.15.229.272.029a1.193,1.193,0,0,0,.4-.029,1.754,1.754,0,0,0-.282.736l-.349,2.574,1.511-.856-.534-1.479a1.47,1.47,0,0,1,.071-1.161c.022-.016.047-.028.068-.045a1.2,1.2,0,0,0-.626-2.126l-2.423-.258a1.2,1.2,0,0,0-.254,2.386Z" transform="translate(-22.184 -47.015)" fill="#f96939"/>
      </g>
      <circle id="Ellipse_712" data-name="Ellipse 712" cx="1.722" cy="1.722" r="1.722" transform="translate(26.94)" fill="#f96939"/>
    </g>
  </g>
</svg>
