<svg xmlns="http://www.w3.org/2000/svg" width="24" height="24" viewBox="0 0 24 24">
  <g id="days" transform="translate(8245 18476)">
    <rect id="Rectangle_13251" data-name="Rectangle 13251" width="24" height="24" transform="translate(-8245 -18476)" fill="none"/>
    <path id="clock_2_" data-name="clock (2)" d="M7.768,0a7.768,7.768,0,1,0,7.768,7.768A7.776,7.776,0,0,0,7.768,0Zm3.694,11.785a.647.647,0,0,1-.915,0L7.31,8.549a.644.644,0,0,1-.19-.458V3.884a.647.647,0,0,1,1.295,0V7.823l3.047,3.047a.647.647,0,0,1,0,.915Zm0,0" transform="translate(-8241 -18472)" fill="#f96939"/>
  </g>
</svg>
