<svg xmlns="http://www.w3.org/2000/svg" width="24" height="24" viewBox="0 0 24 24">
  <g id="meals" transform="translate(8178 18476)">
    <rect id="Rectangle_13253" data-name="Rectangle 13253" width="24" height="24" transform="translate(-8178 -18476)" fill="none"/>
    <path id="dinner_1_" data-name="dinner (1)" d="M33.809,56h.313v8.125h-2.5V58.187A2.19,2.19,0,0,1,33.809,56Zm-.937,14.375a.625.625,0,1,0,1.25,0V64.75h-1.25Zm-15-8.75v2.5H18.5v-2.5Zm7.5-2.187a4.375,4.375,0,1,0,4.375,4.375A4.375,4.375,0,0,0,25.372,59.438ZM17.559,70.375a.625.625,0,0,0,1.25,0V64.75h-1.25ZM18.5,59.438v-2.52a.312.312,0,1,0-.625,0v2.52a.312.312,0,0,0,.625,0ZM32.183,64.75a6.875,6.875,0,0,1-12.749,2.529V64.438a.313.313,0,0,0-.312-.313v-3.14h0a1.486,1.486,0,0,1-.206.015H17.452A1.455,1.455,0,0,1,16,59.459l.241-3.166a.312.312,0,1,1,.624.04L16.623,59.5a.831.831,0,0,0,.829.878h1.464a.83.83,0,0,0,.829-.879L19.5,56.332a.312.312,0,1,1,.624-.04l.22,2.827A6.874,6.874,0,0,1,31,59.861v4.577a.312.312,0,0,0,.312.312Zm-1.811-.937a5,5,0,1,0-5,5A5,5,0,0,0,30.372,63.813Z" transform="translate(-8190.997 -18527)" fill="#f96939"/>
  </g>
</svg>
