<svg xmlns="http://www.w3.org/2000/svg" width="24" height="24" viewBox="0 0 24 24">
  <g id="pickup" transform="translate(8137 18476)">
    <rect id="Rectangle_13254" data-name="Rectangle 13254" width="24" height="24" transform="translate(-8137 -18476)" fill="none"/>
    <path id="location-pin_1_" data-name="location-pin (1)" d="M9.505,0A6.536,6.536,0,0,0,3,6.552C3,11.687,8.894,16.988,9.145,17.21a.543.543,0,0,0,.721,0c.251-.223,6.145-5.525,6.145-10.659A6.536,6.536,0,0,0,9.505,0Zm0,10.119a3.614,3.614,0,1,1,3.614-3.614A3.618,3.618,0,0,1,9.505,10.119Z" transform="translate(-8135 -18473)" fill="#f96939"/>
  </g>
</svg>
