<svg xmlns="http://www.w3.org/2000/svg" width="24" height="24" viewBox="0 0 24 24">
  <g id="wifi" transform="translate(8210 18476)">
    <rect id="Rectangle_13252" data-name="Rectangle 13252" width="24" height="24" transform="translate(-8210 -18476)" fill="none"/>
    <g id="XMLID_358_" transform="translate(-8208 -18524.896)">
      <path id="XMLID_362_" d="M198.852,343.247a1.888,1.888,0,1,0,2.671,0A1.889,1.889,0,0,0,198.852,343.247Z" transform="translate(-190.592 -277.574)" fill="#f96939"/>
      <path id="XMLID_361_" d="M137.019,241.383a5.784,5.784,0,0,0-4.119,1.706,1.105,1.105,0,0,0,1.563,1.563,3.614,3.614,0,0,1,5.112,0,1.105,1.105,0,0,0,1.563-1.563A5.785,5.785,0,0,0,137.019,241.383Z" transform="translate(-127.424 -180.2)" fill="#f96939"/>
      <path id="XMLID_360_" d="M73.371,147.743a9.4,9.4,0,0,0-6.693,2.772,1.105,1.105,0,0,0,1.563,1.563,7.254,7.254,0,0,1,10.259,0,1.105,1.105,0,1,0,1.563-1.563A9.4,9.4,0,0,0,73.371,147.743Z" transform="translate(-63.776 -90.2)" fill="#f96939"/>
      <path id="XMLID_359_" d="M18.867,57.737a13.111,13.111,0,0,0-18.543,0A1.105,1.105,0,1,0,1.887,59.3a10.9,10.9,0,0,1,15.417,0,1.105,1.105,0,0,0,1.564-1.563Z" transform="translate(0 0)" fill="#f96939"/>
    </g>
  </g>
</svg>
