<svg xmlns="http://www.w3.org/2000/svg" width="31.06" height="31.059" viewBox="0 0 31.06 31.059">
  <path id="_001-facebook" data-name="001-facebook" d="M28.82,0H2.24A2.24,2.24,0,0,0,0,2.24V28.819a2.24,2.24,0,0,0,2.24,2.24H16.592V19.048H12.557v-4.7h4.034v-3.46c0-4.012,2.45-6.2,6.029-6.2a33.177,33.177,0,0,1,3.617.185V9.069H23.769c-1.947,0-2.324.925-2.324,2.283v2.994H26.1l-.607,4.7H21.445V31.059H28.82a2.24,2.24,0,0,0,2.24-2.24V2.24A2.24,2.24,0,0,0,28.82,0Zm0,0" transform="translate(0 0)" fill="#1976d2"/>
</svg>
