<svg xmlns="http://www.w3.org/2000/svg" width="31.06" height="31.06" viewBox="0 0 31.06 31.06">
  <path id="_002-twitter" data-name="002-twitter" d="M28.82,0H2.24A2.24,2.24,0,0,0,0,2.24V28.819a2.24,2.24,0,0,0,2.24,2.24H28.82a2.24,2.24,0,0,0,2.24-2.24V2.24A2.24,2.24,0,0,0,28.82,0ZM17.534,24.3c-3.822.066-5.269-2.722-5.269-4.685V13.883H10.489V11.617A5.367,5.367,0,0,0,13.94,6.89a.139.139,0,0,1,.127-.131h2.569v4.469h3.511v2.656H16.624v5.461a1.539,1.539,0,0,0,1.688,1.729,4.128,4.128,0,0,0,1.415-.3l.844,2.5A4.67,4.67,0,0,1,17.534,24.3Zm0,0" transform="translate(0)" fill="#0e59a3"/>
</svg>
