<svg xmlns="http://www.w3.org/2000/svg" width="31.06" height="31.06" viewBox="0 0 31.06 31.06">
  <g id="_008-youtube" data-name="008-youtube" transform="translate(0)">
    <path id="Path_50288" data-name="Path 50288" d="M224.113,213.858l5.052-2.909-5.052-2.909Zm0,0" transform="translate(-210.517 -195.419)" fill="#f44336"/>
    <path id="Path_50289" data-name="Path 50289" d="M28.82,0H2.24A2.24,2.24,0,0,0,0,2.24V28.819a2.24,2.24,0,0,0,2.24,2.24H28.82a2.24,2.24,0,0,0,2.24-2.24V2.24A2.24,2.24,0,0,0,28.82,0ZM25.234,15.546a25.631,25.631,0,0,1-.4,4.668,2.432,2.432,0,0,1-1.711,1.71,59.026,59.026,0,0,1-7.594.4s-6.059,0-7.594-.416A2.432,2.432,0,0,1,6.226,20.2a25.519,25.519,0,0,1-.4-4.668,25.614,25.614,0,0,1,.4-4.668A2.481,2.481,0,0,1,7.936,9.135a59.026,59.026,0,0,1,7.594-.4s6.075,0,7.594.416a2.432,2.432,0,0,1,1.711,1.711,24.323,24.323,0,0,1,.4,4.684Zm0,0" transform="translate(0)" fill="#f44336"/>
  </g>
</svg>
