<svg xmlns="http://www.w3.org/2000/svg" width="31.06" height="31.059" viewBox="0 0 31.06 31.059">
  <path id="_010-linkedin" data-name="010-linkedin" d="M28.82,0H2.24A2.24,2.24,0,0,0,0,2.24V28.819a2.24,2.24,0,0,0,2.24,2.24H28.82a2.24,2.24,0,0,0,2.24-2.24V2.24A2.24,2.24,0,0,0,28.82,0Zm-17.8,23.477H7.235V12.1h3.782ZM9.126,10.544H9.1a1.971,1.971,0,1,1,.05-3.932,1.972,1.972,0,1,1-.025,3.932ZM24.655,23.477H20.873V17.389c0-1.53-.548-2.573-1.916-2.573A2.07,2.07,0,0,0,17.017,16.2a2.59,2.59,0,0,0-.124.923v6.354H13.11s.05-10.311,0-11.379h3.782v1.611A3.755,3.755,0,0,1,20.3,11.831c2.488,0,4.354,1.626,4.354,5.121Zm0,0" transform="translate(0)" fill="#1976d2"/>
</svg>
