<svg xmlns="http://www.w3.org/2000/svg" width="31.06" height="31.059" viewBox="0 0 31.06 31.059">
  <path id="_013-twitter" data-name="013-twitter" d="M28.82,0H2.24A2.24,2.24,0,0,0,0,2.24V28.819a2.24,2.24,0,0,0,2.24,2.24H28.82a2.24,2.24,0,0,0,2.24-2.24V2.24A2.24,2.24,0,0,0,28.82,0Zm-6.2,12.108q.01.229.01.461A10.073,10.073,0,0,1,12.489,22.711h0a10.09,10.09,0,0,1-5.464-1.6,7.25,7.25,0,0,0,.85.049A7.152,7.152,0,0,0,12.3,19.633a3.569,3.569,0,0,1-3.33-2.476,3.553,3.553,0,0,0,1.61-.061A3.565,3.565,0,0,1,7.723,13.6c0-.016,0-.031,0-.045A3.54,3.54,0,0,0,9.338,14a3.568,3.568,0,0,1-1.1-4.759,10.12,10.12,0,0,0,7.347,3.724,3.566,3.566,0,0,1,6.074-3.251,7.15,7.15,0,0,0,2.264-.865,3.578,3.578,0,0,1-1.568,1.972,7.109,7.109,0,0,0,2.047-.561,7.244,7.244,0,0,1-1.778,1.846Zm0,0" transform="translate(0)" fill="#03a9f4"/>
</svg>
