<svg id="_016---Bungie-Jumping" data-name="016---Bungie-Jumping" xmlns="http://www.w3.org/2000/svg" width="36.93" height="41.998" viewBox="0 0 36.93 41.998">
  <path id="Shape" d="M.724,0A.724.724,0,0,0,0,.724V17.741a2.534,2.534,0,0,0,2.534,2.534h9.413a2.529,2.529,0,0,0,2.529-2.381,2.61,2.61,0,0,0-2.645-2.688H6.155a1.08,1.08,0,0,1-.77-.316,1.1,1.1,0,0,1,.885-1.856h5.678a2.529,2.529,0,0,0,2.529-2.381,2.61,2.61,0,0,0-2.645-2.688H10.5a1.058,1.058,0,0,1-.8-1.778,1.259,1.259,0,0,1,.912-.395h8.211v8.689h3.621V5.793H23.9v8.689h3.621V5.793h.724a.724.724,0,1,0,0-1.448h-.724V3.258a1.81,1.81,0,0,0-3.621,0V4.345H22.447V3.258a1.81,1.81,0,1,0-3.621,0V4.345H10.615a2.551,2.551,0,0,0-1.91,4.328c.891.892,1.845.741,3.127.741a1.169,1.169,0,0,1,1.2,1.153,1.082,1.082,0,0,1-1.086,1.019H6.27a2.713,2.713,0,0,0-1.964.849,2.508,2.508,0,0,0,1.849,4.219h5.677a1.169,1.169,0,0,1,1.2,1.153,1.082,1.082,0,0,1-1.086,1.019H2.534a1.086,1.086,0,0,1-1.086-1.086V.724A.724.724,0,0,0,.724,0Z" transform="translate(0 0)" fill="#fff"/>
  <path id="Shape-2" data-name="Shape" d="M34.689,22H26v1.448h8.689Z" transform="translate(-7.173 -6.07)" fill="#fff"/>
  <path id="Shape-3" data-name="Shape" d="M33.793,52.346V50.9a2.851,2.851,0,0,0-1.286-2.4A2.889,2.889,0,0,0,28,50.9v1.448a2.9,2.9,0,0,0,5.793,0Z" transform="translate(-7.725 -13.244)" fill="#fff"/>
  <path id="Shape-4" data-name="Shape" d="M31.1,33.914V26H22.413v7.914a2.163,2.163,0,0,1-.639,1.54L13.425,43.8a1.448,1.448,0,0,0-.052,2,1.376,1.376,0,0,0,1,.429,1.665,1.665,0,0,0,1.2-.48L21.6,39.717a2.172,2.172,0,0,1,3.648,1.031,4.434,4.434,0,0,1,3.011,0,2.172,2.172,0,0,1,3.648-1.031l6.032,6.032a1.665,1.665,0,0,0,1.2.48,1.376,1.376,0,0,0,1-.434,1.448,1.448,0,0,0-.057-1.99l-8.349-8.349a2.163,2.163,0,0,1-.639-1.541Z" transform="translate(-3.587 -7.173)" fill="#fff"/>
</svg>
