<svg xmlns="http://www.w3.org/2000/svg" width="26.905" height="19.28" viewBox="0 0 26.905 19.28">
  <path id="airplane" d="M3.206,11.837a.471.471,0,0,0-.231.616l1.058,2.271a.47.47,0,0,0,.621.231l7.994-3.734-.724,7.57a.47.47,0,0,0,.155.4,2.052,2.052,0,0,0,1.242.47,1.512,1.512,0,0,0,.371-.047,2.39,2.39,0,0,0,1.5-1.735L18.332,8.56l6.23-2.906C26.4,4.8,27.341,3.063,26.707,1.708A2.38,2.38,0,0,0,24.868.425,4.359,4.359,0,0,0,22.3.82l-7.19,3.371L7.381,1.168A2.386,2.386,0,0,0,5.1,1.2a1.918,1.918,0,0,0-.7,1.519.471.471,0,0,0,.2.372L9.8,6.669,6.822,8.08l-5-1.27a.47.47,0,0,0-.522.226L.056,9.279A.47.47,0,0,0,.3,9.942L4,11.47ZM5.359,2.484a.8.8,0,0,1,.282-.508c.268-.193.757-.165,1.411.08l6.884,2.685L10.795,6.208ZM1.128,9.274l.818-1.453,4.81,1.194a.471.471,0,0,0,.311-.028L22.7,1.685a3.437,3.437,0,0,1,2.008-.32,1.473,1.473,0,0,1,1.147.743c.395.847-.381,2.083-1.693,2.694L18.746,7.342l.329-.974a.478.478,0,1,0-.907-.3L14.3,17.583c-.23.654-.517,1.044-.837,1.129a.8.8,0,0,1-.574-.108l.94-9.875a.472.472,0,0,0-.94-.089l-.146,1.509L4.673,13.91,4.01,12.5l1.326-.621a.47.47,0,0,0,0-.861Zm0,0" transform="translate(0.001 -0.376)" fill="#f96939"/>
</svg>
