<svg xmlns="http://www.w3.org/2000/svg" xmlns:xlink="http://www.w3.org/1999/xlink" width="50" height="50" viewBox="0 0 50 50">
  <defs>
    <filter id="Ellipse_666" x="0" y="0" width="50" height="50" filterUnits="userSpaceOnUse">
      <feOffset dy="3" input="SourceAlpha"/>
      <feGaussianBlur stdDeviation="3" result="blur"/>
      <feFlood flood-opacity="0.161"/>
      <feComposite operator="in" in2="blur"/>
      <feComposite in="SourceGraphic"/>
    </filter>
  </defs>
  <g id="cancel" transform="translate(9 6)">
    <g transform="matrix(1, 0, 0, 1, -9, -6)" filter="url(#Ellipse_666)">
      <circle id="Ellipse_666-2" data-name="Ellipse 666" cx="16" cy="16" r="16" transform="translate(9 6)" fill="#fff"/>
    </g>
    <path id="Path_50352" data-name="Path 50352" d="M132.384,132.384a1.569,1.569,0,0,1-2.2,0l-5.1-5.1-5.1,5.1a1.556,1.556,0,0,1-2.2-2.2l5.1-5.1-5.1-5.1a1.556,1.556,0,0,1,2.2-2.2l5.1,5.1,5.1-5.1a1.556,1.556,0,0,1,2.2,2.2l-5.1,5.1,5.1,5.1A1.569,1.569,0,0,1,132.384,132.384Z" transform="translate(-109.084 -109.084)" fill="#f96939"/>
  </g>
</svg>
