<svg id="climbing-silhouette" xmlns="http://www.w3.org/2000/svg" width="20.499" height="22" viewBox="0 0 20.499 22">
  <g id="Group_30230" data-name="Group 30230">
    <path id="Path_50306" data-name="Path 50306" d="M19.644,3.919a2.231,2.231,0,0,0-.858-3.85,2.193,2.193,0,0,0-2.7,2.466A2.217,2.217,0,0,0,19.644,3.919Z" transform="translate(-16.058 0)" fill="#fff"/>
    <path id="Path_50307" data-name="Path 50307" d="M28.958,33.512a1.181,1.181,0,0,0-1.486-.548l-2.105.879a1.027,1.027,0,0,0-.634.882l-.008-.014s-.882,2.525,0,4.193A4.734,4.734,0,0,0,27.457,40.9l.306.654c.01.021.023.038.033.057l.021.044,0,0a1.344,1.344,0,0,0,.958.66A5.208,5.208,0,0,0,30.57,47.4a.27.27,0,1,0,.352-.41,4.685,4.685,0,0,1-1.6-4.706c.03-.008.06-.011.09-.02L34.73,40.53l6.021,3.813a1.356,1.356,0,0,0,.483.186L42.615,48.4A5.175,5.175,0,0,0,43.7,50.1c.4.379.726.2.727-.395l.016-18.47a1.2,1.2,0,0,0-1.2-1.2H30.915a.809.809,0,0,0-.665-.348h-.676a.812.812,0,0,0-.761,1.093l1.4,3.782-.683.078Zm7.17-.542a1.7,1.7,0,0,1,1.192,1.32A1.816,1.816,0,0,0,38.5,35.666l2.75.83a2.183,2.183,0,0,1,1.328,1.212,3.074,3.074,0,0,1-.146,1.888l-.9,2.036L35.64,37.9a1.352,1.352,0,0,0-1.143-.143l-2.373.774a9.187,9.187,0,0,0,2.742-5.872Zm-4.7,3.088a.812.812,0,0,0,.669-1.088l-1.213-3.278,3.447.84a8.765,8.765,0,0,1-2.878,5.908L30.31,36.185Z" transform="translate(-23.947 -28.301)" fill="#fff"/>
  </g>
</svg>
