<svg id="cold" xmlns="http://www.w3.org/2000/svg" width="43.449" height="41.608" viewBox="0 0 43.449 41.608">
  <path id="Path_50332" data-name="Path 50332" d="M10.552,30.48H.639a.639.639,0,0,0,0,1.277h9.913a3.062,3.062,0,1,1-3.062,3.062.639.639,0,1,0-1.277,0,4.339,4.339,0,1,0,4.339-4.339ZM.639,29.213h9.3a.639.639,0,1,0,0-1.277H.639a.639.639,0,1,0,0,1.277Zm0-2.493H11.616a4.339,4.339,0,1,0-4.339-4.339.639.639,0,1,0,1.277,0,3.062,3.062,0,1,1,3.062,3.062H.639a.639.639,0,0,0,0,1.277ZM20.7,27.936H12.5a.639.639,0,1,0,0,1.277h8.2a3.062,3.062,0,1,1-3.062,3.062.639.639,0,1,0-1.277,0A4.339,4.339,0,1,0,20.7,27.936Zm6.222,2.9a.638.638,0,0,0,.393-.813,6.839,6.839,0,0,0-6.453-4.583H16.806a.639.639,0,0,0,0,1.277h4.057a5.56,5.56,0,0,1,5.247,3.726.638.638,0,0,0,.813.393Zm.171.933a.639.639,0,1,0,.639.639A.639.639,0,0,0,27.094,31.772ZM43.139,47.7l-.981-.587.557-.14A.638.638,0,1,0,42.4,45.73l-1.8.45-1.551-.929v-1.5l1.551-.929,1.8.45a.639.639,0,0,0,.311-1.239l-.557-.14.981-.587a.639.639,0,0,0-.656-1.1L41.5,40.8l.139-.552a.639.639,0,1,0-1.239-.311l-.449,1.791-1.575.943L37.2,41.989V40.165l1.309-1.309a.638.638,0,0,0-.9-.9l-.406.406V37.216a.639.639,0,1,0-1.277,0v1.147l-.4-.4a.639.639,0,0,0-.9.9l1.306,1.306v1.82l-1.173.677-1.572-.941-.449-1.791a.639.639,0,1,0-1.239.311l.139.552-.984-.589a.639.639,0,1,0-.656,1.1l.981.587-.557.14a.639.639,0,1,0,.311,1.239l1.8-.45,1.544.924v1.513l-1.544.924-1.8-.45a.638.638,0,0,0-.311,1.239l.557.14-.981.587a.639.639,0,1,0,.656,1.1l.984-.589-.139.552a.639.639,0,1,0,1.239.311l.449-1.791,1.561-.935,1.187.685v1.81l-1.309,1.309a.639.639,0,0,0,.9.9l.406-.406v1.143a.639.639,0,0,0,1.277,0V50.637l.4.4a.639.639,0,1,0,.9-.9L37.2,48.831v-1.81l1.184-.683,1.565.937.449,1.791a.639.639,0,1,0,1.239-.311L41.5,48.2l.984.589a.638.638,0,1,0,.656-1.1Zm-5.358-2.485-1.222.705-1.222-.705V43.8l1.222-.705,1.222.705ZM30.444,23.4v-.663l.134.134a.639.639,0,1,0,.9-.9l-1.037-1.037v-1.37l.854-.493,1.184.709.357,1.422a.639.639,0,0,0,1.239-.311l-.046-.184.569.34a.639.639,0,0,0,.656-1.1l-.566-.339.187-.047a.638.638,0,0,0-.311-1.239l-1.426.358-1.175-.7v-1.1l1.175-.7,1.426.358a.639.639,0,0,0,.311-1.239l-.188-.047.566-.339a.639.639,0,1,0-.656-1.1l-.568.34.046-.184a.639.639,0,0,0-1.239-.311l-.357,1.422-1.193.714-.849-.49V13.918l1.04-1.04a.639.639,0,0,0-.9-.9l-.137.137v-.66a.639.639,0,1,0-1.277,0v.663l-.134-.134a.639.639,0,0,0-.9.9l1.037,1.037V15.3l-.846.488-1.19-.713-.357-1.422a.639.639,0,1,0-1.239.311l.046.184-.568-.34a.639.639,0,0,0-.656,1.1l.566.339-.188.047a.639.639,0,1,0,.311,1.239l1.426-.358,1.169.7v1.11l-1.169.7-1.426-.358a.638.638,0,1,0-.311,1.239l.187.047-.566.339a.639.639,0,1,0,.656,1.1l.568-.34-.046.184a.639.639,0,1,0,1.239.311l.357-1.422,1.181-.707.857.495v1.37l-1.04,1.04a.639.639,0,0,0,.9.9l.137-.137v.66a.639.639,0,0,0,1.277,0Zm-1.528-5.455V16.918l.887-.512.887.512v1.024l-.887.512Z" transform="translate(0 -10.814)" fill="#fff"/>
</svg>
