<svg id="diving" xmlns="http://www.w3.org/2000/svg" width="43.562" height="41.607" viewBox="0 0 43.562 41.607">
  <path id="Path_50324" data-name="Path 50324" d="M42.667,61a4.95,4.95,0,0,0-3.117,1.051,3.371,3.371,0,0,1-4.21,0,5.145,5.145,0,0,0-6.233,0,3.371,3.371,0,0,1-4.21,0,5.144,5.144,0,0,0-6.233,0,3.371,3.371,0,0,1-4.21,0A4.95,4.95,0,0,0,11.337,61a4.949,4.949,0,0,0-3.117,1.051,3.2,3.2,0,0,1-2.1.738,3.2,3.2,0,0,1-2.1-.738A4.949,4.949,0,0,0,.895,61a.895.895,0,0,0,0,1.789,3.2,3.2,0,0,1,2.1.738A4.949,4.949,0,0,0,6.116,64.58a4.949,4.949,0,0,0,3.117-1.051,3.2,3.2,0,0,1,2.1-.738,3.2,3.2,0,0,1,2.1.738,5.144,5.144,0,0,0,6.233,0,3.371,3.371,0,0,1,4.21,0,5.145,5.145,0,0,0,6.233,0,3.371,3.371,0,0,1,4.21,0,5.145,5.145,0,0,0,6.233,0,3.2,3.2,0,0,1,2.105-.738.895.895,0,0,0,0-1.789Z" transform="translate(0 -56.788)" fill="#fff"/>
  <path id="Path_50325" data-name="Path 50325" d="M.895,13.278a3.2,3.2,0,0,1,2.1.738,4.949,4.949,0,0,0,3.116,1.051,4.949,4.949,0,0,0,3.117-1.051,3.2,3.2,0,0,1,2.1-.738,3.2,3.2,0,0,1,2.1.738,5.144,5.144,0,0,0,6.233,0,3.371,3.371,0,0,1,4.21,0,5.145,5.145,0,0,0,6.233,0,3.371,3.371,0,0,1,4.21,0,5.145,5.145,0,0,0,6.233,0,3.2,3.2,0,0,1,2.105-.738.895.895,0,1,0,0-1.789A4.95,4.95,0,0,0,39.55,12.54a3.371,3.371,0,0,1-4.21,0,5.145,5.145,0,0,0-6.233,0,3.371,3.371,0,0,1-4.21,0,5.144,5.144,0,0,0-6.233,0,3.371,3.371,0,0,1-4.21,0,4.95,4.95,0,0,0-3.117-1.051A4.949,4.949,0,0,0,8.221,12.54a3.2,3.2,0,0,1-2.1.738,3.2,3.2,0,0,1-2.1-.738A4.949,4.949,0,0,0,.895,11.489a.895.895,0,0,0,0,1.789Z" transform="translate(0 -11.489)" fill="#fff"/>
  <path id="Path_50326" data-name="Path 50326" d="M443.834,433.534l-4.394-2.942a2.64,2.64,0,0,1-.455,3.648l3.022,2.023a1.642,1.642,0,1,0,1.827-2.729Z" transform="translate(-401.635 -394.934)" fill="#fff"/>
  <path id="Path_50327" data-name="Path 50327" d="M80.838,214.264a1.92,1.92,0,0,0-3.1,2.244l5.336.308Z" transform="translate(-70.883 -196.413)" fill="#fff"/>
  <path id="Path_50328" data-name="Path 50328" d="M426.82,302.385a3.023,3.023,0,0,1,.91.142,3.4,3.4,0,0,0-2.738-1.521h-.1a3.4,3.4,0,0,0-.094,6.8h.146a3.032,3.032,0,0,1,1.873-5.418Z" transform="translate(-385.635 -276.372)" fill="#fff"/>
  <g id="Group_30232" data-name="Group 30232" transform="translate(2.748 19.393)">
    <path id="Path_50329" data-name="Path 50329" d="M66.08,255.867l-5.127-3.019.288-4.2.417,3.456,3.9,2.3-2.12-5.042.854-1.992a2.254,2.254,0,0,0-1.184-2.96L52.4,239.826a4.935,4.935,0,0,0-3.562-.124l-5.481,1.906-9.024-.52a1.921,1.921,0,1,0-.221,3.836l9.405.542a1.92,1.92,0,0,0,.742-.1l5.022-1.746-.094.056-5,2.968,3.948.743h0l9.088,3.9.751-2.853-.358,5.211a1.642,1.642,0,0,0,.8,1.527l6,3.534a1.642,1.642,0,1,0,1.667-2.83Z" transform="translate(-32.297 -239.428)" fill="#fff"/>
  </g>
  <path id="Path_50330" data-name="Path 50330" d="M464.882,330.631l-.933-.526a1.958,1.958,0,0,0-1.923,3.411l.933.526a.381.381,0,0,0,.52-.145l1.549-2.747A.381.381,0,0,0,464.882,330.631Z" transform="translate(-421.804 -302.765)" fill="#fff"/>
  <path id="Path_50331" data-name="Path 50331" d="M297.941,192.173l-8.268-3.407a2.346,2.346,0,0,0-1.787,4.338l8.268,3.407a2.346,2.346,0,0,0,1.787-4.338Z" transform="translate(-262.062 -173.521)" fill="#fff"/>
</svg>
