<svg xmlns="http://www.w3.org/2000/svg" width="22.002" height="22.001" viewBox="0 0 22.002 22.001">
  <g id="edit" transform="translate(0 -0.501)">
    <path id="Path_50436" data-name="Path 50436" d="M17.418,93.15a.916.916,0,0,0-.917.917V101.4a.918.918,0,0,1-.917.917H2.75a.918.918,0,0,1-.917-.917V88.566a.918.918,0,0,1,.917-.917h7.334a.917.917,0,0,0,0-1.834H2.75A2.754,2.754,0,0,0,0,88.566V101.4a2.754,2.754,0,0,0,2.75,2.75H15.585a2.754,2.754,0,0,0,2.75-2.75V94.067a.916.916,0,0,0-.917-.917Zm0,0" transform="translate(0 -81.649)" fill="#949494"/>
    <path id="Path_50437" data-name="Path 50437" d="M182.591,75.515a.464.464,0,0,0-.126.234l-.648,3.242a.458.458,0,0,0,.45.548.436.436,0,0,0,.09-.009l3.241-.648a.456.456,0,0,0,.235-.126l7.253-7.253-3.241-3.241Zm0,0" transform="translate(-173.996 -64.849)" fill="#949494"/>
    <path id="Path_50438" data-name="Path 50438" d="M395.955,1.171a2.293,2.293,0,0,0-3.241,0L391.445,2.44l3.241,3.241,1.269-1.269a2.292,2.292,0,0,0,0-3.241Zm0,0" transform="translate(-374.624)" fill="#949494"/>
  </g>
</svg>
