<svg id="eiffel-tower" xmlns="http://www.w3.org/2000/svg" width="41.998" height="41.998" viewBox="0 0 41.998 41.998">
  <path id="Path_50321" data-name="Path 50321" d="M43,35.547a3.387,3.387,0,1,0-4.064,3.319v2.778H35.875A45.482,45.482,0,0,1,30.5,33.515h.987a.677.677,0,0,0,.677-.677v-2.71a.677.677,0,0,0-.677-.677H28.626c-.355-.89-.679-1.8-.978-2.71h1.125a.677.677,0,0,0,.677-.677v-2.71a.677.677,0,0,0-.677-.677H26.517a45.494,45.494,0,0,1-1.131-10.052V7.1a.677.677,0,0,0-.677-.677h-.677V4.387a.677.677,0,0,0-.677-.677h-.677V1H21.322V3.71h-.677a.677.677,0,0,0-.677.677V6.419h-.677a.677.677,0,0,0-.677.677v5.527a45.494,45.494,0,0,1-1.131,10.052H15.225a.677.677,0,0,0-.677.677v2.71a.677.677,0,0,0,.677.677H16.35c-.3.913-.623,1.819-.978,2.71H12.516a.677.677,0,0,0-.677.677v2.71a.677.677,0,0,0,.677.677h1a45.44,45.44,0,0,1-5.39,8.129H5.064V38.865a3.387,3.387,0,1,0-1.355,0v2.778H1V43H43V41.643h-2.71V38.865A3.393,3.393,0,0,0,43,35.547Zm-40.643,0a2.032,2.032,0,1,1,2.71,1.908V34.869H3.71v2.585A2.029,2.029,0,0,1,2.355,35.547Zm24.821-6.1H25.2l-.9-2.71h1.928C26.51,27.653,26.831,28.556,27.176,29.45Zm-4.31-2.71.9,2.71H20.229l.9-2.71ZM24.045,13.6l-1.089-1.089,1.074-1.074v1.183C24.031,12.951,24.039,13.278,24.045,13.6ZM22,11.558l-1.074-1.074h2.149Zm-2.032-.117,1.074,1.074L19.953,13.6c.007-.327.014-.653.014-.98Zm-.177,5.242,1.252,1.252-1.586,1.586q.21-1.413.335-2.838Zm.458-1.458L22,13.473l1.752,1.752L22,16.977Zm3.961,1.458q.124,1.424.335,2.838l-1.586-1.586ZM21.322,5.064h1.355V6.419H21.322Zm-1.355,2.71h4.064V9.129H19.967Zm-.922,14.073L22,18.893l2.954,2.954c.056.277.115.553.175.83H18.869C18.93,22.4,18.989,22.124,19.045,21.847ZM15.9,24.031H28.1v1.355H15.9Zm1.874,2.71H19.7l-.9,2.71H16.822c.345-.894.665-1.8.954-2.71Zm-4.583,4.064H30.805V32.16H13.193Zm1.845,2.71h13.92a46.859,46.859,0,0,0,5.162,8.129H28.1v-.677a6.1,6.1,0,1,0-12.193,0v.677H9.879A46.848,46.848,0,0,0,15.038,33.515Zm11.7,8.129H17.257v-.677a4.742,4.742,0,1,1,9.483,0Zm10.838-6.1a2.032,2.032,0,1,1,2.71,1.908V34.869H38.934v2.585A2.029,2.029,0,0,1,37.579,35.547Z" transform="translate(-1 -1)" fill="#fff"/>
  <path id="Path_50322" data-name="Path 50322" d="M3.71,29.129a2.678,2.678,0,0,0,1.512-.462,4.092,4.092,0,0,0,3.749,0,2.682,2.682,0,0,0,1.513.462,2.709,2.709,0,0,0,.459-5.38,4.064,4.064,0,0,0-7.691,0,2.709,2.709,0,0,0,.459,5.38Zm-.059-4.068c.025,0,.081.009.107.01a.69.69,0,0,0,.683-.544,2.709,2.709,0,0,1,5.311,0,.677.677,0,0,0,.664.544.83.83,0,0,0,.095-.007,1.355,1.355,0,1,1-1,2.3.676.676,0,0,0-.872-.081,2.728,2.728,0,0,1-3.094,0,.677.677,0,0,0-.872.081,1.355,1.355,0,1,1-1.027-2.3Z" transform="translate(-1 -7.452)" fill="#fff"/>
  <path id="Path_50323" data-name="Path 50323" d="M47.71,29.129a2.678,2.678,0,0,0,1.512-.462,4.092,4.092,0,0,0,3.749,0,2.682,2.682,0,0,0,1.513.462,2.709,2.709,0,0,0,.459-5.38,4.064,4.064,0,0,0-7.691,0,2.709,2.709,0,0,0,.459,5.38Zm-.059-4.068c.025,0,.082.009.107.01a.687.687,0,0,0,.683-.544,2.709,2.709,0,0,1,5.311,0,.677.677,0,0,0,.664.544.82.82,0,0,0,.095-.007,1.355,1.355,0,1,1-1,2.3.676.676,0,0,0-.872-.081,2.728,2.728,0,0,1-3.094,0,.677.677,0,0,0-.872.081,1.355,1.355,0,1,1-1.027-2.3Z" transform="translate(-15.195 -7.452)" fill="#fff"/>
</svg>
