<svg xmlns="http://www.w3.org/2000/svg" width="21.388" height="21.388" viewBox="0 0 21.388 21.388">
  <path id="facebook" d="M18.508,0H2.884A2.882,2.882,0,0,0,0,2.882V18.506a2.882,2.882,0,0,0,2.882,2.882H10.59l.013-7.643H8.617a.468.468,0,0,1-.468-.467l-.01-2.464a.469.469,0,0,1,.469-.47H10.59V7.964A3.889,3.889,0,0,1,14.741,3.7h2.022a.469.469,0,0,1,.469.469V6.243a.469.469,0,0,1-.468.469H15.523c-1.34,0-1.6.637-1.6,1.571v2.061h2.945a.468.468,0,0,1,.465.524l-.292,2.464a.469.469,0,0,1-.465.413h-2.64l-.013,7.643h4.585a2.882,2.882,0,0,0,2.882-2.882V2.882A2.882,2.882,0,0,0,18.508,0Z" transform="translate(-0.002)" fill="#475993"/>
</svg>
