<svg id="forest" xmlns="http://www.w3.org/2000/svg" width="41.607" height="41.607" viewBox="0 0 41.607 41.607">
  <path id="Path_50333" data-name="Path 50333" d="M102.845,155.749,99.293,152.2l-.949.949,5.843,5.843V152h-1.342Zm0,0" transform="translate(-90.094 -139.25)" fill="#fff"/>
  <path id="Path_50334" data-name="Path 50334" d="M36.239,16.852V9.4H34.9v3.43a4.68,4.68,0,0,0-3.355-1.417H29.528v.671a4.7,4.7,0,0,0,4.7,4.7H34.9v7.456a4.68,4.68,0,0,0-3.355-1.417H29.528v.671a4.7,4.7,0,0,0,4.7,4.7H34.9v4.986a3.292,3.292,0,0,0-3.355.4,3.33,3.33,0,0,0-5.09,1.352c-.1.011-.186.038-.279.057V32.212h.671A3.359,3.359,0,0,0,30.2,28.857v-.671H28.186a3.322,3.322,0,0,0-2.013.688V22.851a6.03,6.03,0,0,0,.814-10.323,6.033,6.033,0,0,0-5.512-8.5,5.95,5.95,0,0,0-.989.084,6.037,6.037,0,0,0-11.443,0,5.95,5.95,0,0,0-.989-.084,6.032,6.032,0,0,0-5.512,8.5,6.033,6.033,0,0,0,1.574,10.64,6.009,6.009,0,0,0,1.254,2.784v1.637a4.682,4.682,0,0,0-3.355-1.416H0v.671a4.7,4.7,0,0,0,4.7,4.7h.671v2.684h.018a3.348,3.348,0,0,0-.41.694A3.361,3.361,0,0,0,2.036,37.86,3.345,3.345,0,0,0,0,40.937v.671H41.607v-.671a3.345,3.345,0,0,0-2.036-3.076,3.361,3.361,0,0,0-2.941-2.941,3.348,3.348,0,0,0-.41-.694h.018V30.87h.671a4.7,4.7,0,0,0,4.7-4.7V25.5H39.594a4.68,4.68,0,0,0-3.355,1.417V20.8h.671a4.7,4.7,0,0,0,4.7-4.7v-.671H39.594a4.68,4.68,0,0,0-3.355,1.417Zm-2.013-1.417a3.361,3.361,0,0,1-3.288-2.684h.6a3.361,3.361,0,0,1,3.288,2.684Zm0,11.408a3.361,3.361,0,0,1-3.288-2.684h.6a3.361,3.361,0,0,1,3.288,2.684Zm-6.04,2.684h.556a2.017,2.017,0,0,1-1.9,1.342h-.556A2.017,2.017,0,0,1,28.186,29.528ZM4.7,30.2A3.361,3.361,0,0,1,1.41,27.515h.6A3.361,3.361,0,0,1,5.3,30.2ZM1.458,40.265a2.016,2.016,0,0,1,1.4-1.272l.527-.134-.023-.545a.2.2,0,0,0-.008-.064v0a2.01,2.01,0,0,1,1.97-2.015l.651.033.134-.527a2.008,2.008,0,0,1,1.942-1.517,1.984,1.984,0,0,1,1.508.7l.505.578.505-.578a1.984,1.984,0,0,1,1.508-.7,2.009,2.009,0,0,1,1.943,1.517l.134.527.545-.023c.035,0,.071-.006.062-.009a2.01,2.01,0,0,1,2.015,1.97l-.033.651.527.134a2.015,2.015,0,0,1,1.4,1.272H1.458Zm5.253-7.094v-6a6,6,0,0,0,1.342.669v5.041a3.322,3.322,0,0,0-1.342.288Zm2.684.01V28.146a6.128,6.128,0,0,0,.671.04,5.982,5.982,0,0,0,2.684-.632V32.96a3.226,3.226,0,0,0-2.684.608,3.353,3.353,0,0,0-.671-.386Zm12.148,7.084H20.065A3.348,3.348,0,0,0,18.1,37.86a3.347,3.347,0,0,0-1.329-2.292h.01V27.549a6.029,6.029,0,0,0,5.369.013v6.01a3.322,3.322,0,0,0-2.013-.688H18.119v.671a3.359,3.359,0,0,0,3.355,3.355h.671v2.013h.011a3.327,3.327,0,0,0-.613,1.342Zm.488-4.7h-.556a2.017,2.017,0,0,1-1.9-1.342h.556A2.017,2.017,0,0,1,22.031,35.568Zm-2.57-8.724a4.622,4.622,0,0,1-2.684-.862V12.751H15.435V34.977c-.093-.019-.183-.047-.279-.057a3.342,3.342,0,0,0-1.082-1.365h.019V21.868L7.856,15.632l-.949.949,5.843,5.843v3.558a4.673,4.673,0,0,1-7.359-3.4l-.044-.472L4.888,22a4.691,4.691,0,0,1-1.142-8.645l.6-.334L4,12.428A4.688,4.688,0,0,1,9.335,5.551l.688.2.151-.7a4.7,4.7,0,0,1,9.18,0l.151.7.688-.2a4.69,4.69,0,0,1,5.338,6.877l-.344.589.6.334A4.692,4.692,0,0,1,24.64,22l-.46.117-.044.472a4.672,4.672,0,0,1-4.675,4.258Zm5.369-1.93V35.577a3.347,3.347,0,0,0-1.319,2.284l-.023.011V26.654a5.986,5.986,0,0,0,1.342-1.741ZM36.239,36.239a2.01,2.01,0,0,1,2.015,1.97l-.033.651.527.134a2.016,2.016,0,0,1,1.4,1.272H22.933a2.016,2.016,0,0,1,1.4-1.272l.527-.134-.023-.545a.2.2,0,0,0-.008-.065h0a2.01,2.01,0,0,1,1.97-2.015l.651.033.134-.527a2.008,2.008,0,0,1,1.942-1.517,1.984,1.984,0,0,1,1.508.7l.505.578.505-.578a1.984,1.984,0,0,1,1.508-.7A2.009,2.009,0,0,1,35.5,35.743l.134.527.545-.023c.035,0,.071-.006.062-.009Zm3.355-9.4h.6a3.361,3.361,0,0,1-3.288,2.684h-.6A3.361,3.361,0,0,1,39.594,26.844ZM36.91,19.462h-.6a3.361,3.361,0,0,1,3.288-2.684h.6A3.361,3.361,0,0,1,36.91,19.462Zm0,0" transform="translate(0 0)" fill="#fff"/>
  <path id="Path_50335" data-name="Path 50335" d="M315.355,28.027h2.013v-.671A3.359,3.359,0,0,0,314.013,24H312v.671A3.359,3.359,0,0,0,315.355,28.027Zm-1.342-2.684a2.017,2.017,0,0,1,1.9,1.342h-.556a2.017,2.017,0,0,1-1.9-1.342Zm0,0" transform="translate(-285.828 -21.987)" fill="#fff"/>
  <path id="Path_50336" data-name="Path 50336" d="M146.013,64H144v.671a3.359,3.359,0,0,0,3.355,3.355h2.013v-.671A3.359,3.359,0,0,0,146.013,64Zm1.342,2.684a2.017,2.017,0,0,1-1.9-1.342h.556a2.017,2.017,0,0,1,1.9,1.342Zm0,0" transform="translate(-131.92 -58.631)" fill="#fff"/>
  <path id="Path_50337" data-name="Path 50337" d="M245.369,192.671V192h-2.013A3.359,3.359,0,0,0,240,195.355v.671h2.013A3.359,3.359,0,0,0,245.369,192.671Zm-3.355,2.013h-.556a2.017,2.017,0,0,1,1.9-1.342h.556A2.017,2.017,0,0,1,242.013,194.684Zm0,0" transform="translate(-219.867 -175.894)" fill="#fff"/>
  <path id="Path_50338" data-name="Path 50338" d="M435.355,0A3.359,3.359,0,0,0,432,3.355v.671h2.013A3.359,3.359,0,0,0,437.369.671V0Zm-1.342,2.684h-.556a2.017,2.017,0,0,1,1.9-1.342h.556A2.017,2.017,0,0,1,434.013,2.684Zm0,0" transform="translate(-395.761)" fill="#fff"/>
  <path id="Path_50339" data-name="Path 50339" d="M392,424h1.342v1.342H392Zm0,0" transform="translate(-359.117 -388.432)" fill="#fff"/>
  <path id="Path_50340" data-name="Path 50340" d="M320,448h1.342v1.342H320Zm0,0" transform="translate(-293.156 -410.419)" fill="#fff"/>
  <path id="Path_50341" data-name="Path 50341" d="M424,448h1.342v1.342H424Zm0,0" transform="translate(-388.432 -410.419)" fill="#fff"/>
  <path id="Path_50342" data-name="Path 50342" d="M88,424h1.342v1.342H88Zm0,0" transform="translate(-80.618 -388.432)" fill="#fff"/>
  <path id="Path_50343" data-name="Path 50343" d="M160,448h1.342v1.342H160Zm0,0" transform="translate(-146.578 -410.419)" fill="#fff"/>
  <path id="Path_50344" data-name="Path 50344" d="M56,448h1.342v1.342H56Zm0,0" transform="translate(-51.302 -410.419)" fill="#fff"/>
</svg>
