<svg id="google-icon" xmlns="http://www.w3.org/2000/svg" width="20.961" height="21.388" viewBox="0 0 20.961 21.388">
  <path id="Path_14426" data-name="Path 14426" d="M140.816,108.947a9.164,9.164,0,0,0-.226-2.186H130.55v3.969h5.894a5.226,5.226,0,0,1-2.186,3.47l-.02.133,3.175,2.459.22.022a10.456,10.456,0,0,0,3.185-7.866" transform="translate(-119.856 -98.016)" fill="#4285f4"/>
  <path id="Path_14427" data-name="Path 14427" d="M23.479,164.949a10.193,10.193,0,0,0,7.082-2.59l-3.375-2.614a6.33,6.33,0,0,1-3.707,1.069,6.438,6.438,0,0,1-6.084-4.444l-.125.011-3.3,2.555-.043.12a10.686,10.686,0,0,0,9.554,5.894" transform="translate(-12.784 -143.561)" fill="#34a853"/>
  <path id="Path_14428" data-name="Path 14428" d="M4.61,78.28a6.584,6.584,0,0,1-.356-2.115A6.918,6.918,0,0,1,4.6,74.049l-.006-.142-3.342-2.6-.109.052a10.671,10.671,0,0,0,0,9.6L4.61,78.28" transform="translate(0 -65.47)" fill="#fbbc05"/>
  <path id="Path_14429" data-name="Path 14429" d="M23.479,4.135a5.927,5.927,0,0,1,4.135,1.592L30.632,2.78A10.275,10.275,0,0,0,23.479,0a10.686,10.686,0,0,0-9.554,5.894l3.458,2.685a6.464,6.464,0,0,1,6.1-4.444" transform="translate(-12.784 0)" fill="#eb4335"/>
</svg>
