<svg xmlns="http://www.w3.org/2000/svg" width="40" height="50" viewBox="0 0 40 50">
  <g id="Group_30692" data-name="Group 30692" transform="translate(-119 -702)">
    <rect id="Rectangle_13114" data-name="Rectangle 13114" width="40" height="50" transform="translate(119 702)" fill="#f96939"/>
    <g id="quote-left" transform="translate(125 715)">
      <g id="Group_30171" data-name="Group 30171">
        <path id="Path_50266" data-name="Path 50266" d="M3.338,49.9H7.233A1.662,1.662,0,0,1,8.9,51.566v.556a4.288,4.288,0,0,1-1.3,3.147,4.289,4.289,0,0,1-3.147,1.3H3.338a1.07,1.07,0,0,0-.782.33,1.069,1.069,0,0,0-.33.782v2.226a1.07,1.07,0,0,0,.33.782,1.07,1.07,0,0,0,.782.33H4.451a8.674,8.674,0,0,0,3.451-.7,8.817,8.817,0,0,0,4.746-4.746,8.67,8.67,0,0,0,.7-3.451V39.883a3.324,3.324,0,0,0-3.338-3.338H3.338a3.22,3.22,0,0,0-2.364.973A3.22,3.22,0,0,0,0,39.883v6.676a3.219,3.219,0,0,0,.974,2.365A3.219,3.219,0,0,0,3.338,49.9Z" transform="translate(15.577 -36.545)" fill="#fff"/>
        <path id="Path_50267" data-name="Path 50267" d="M256.793,48.924a3.219,3.219,0,0,0,2.364.973h3.894a1.662,1.662,0,0,1,1.669,1.669v.556a4.451,4.451,0,0,1-4.451,4.451h-1.112a1.128,1.128,0,0,0-1.113,1.113v2.226a1.128,1.128,0,0,0,1.113,1.113h1.112a8.676,8.676,0,0,0,3.452-.7,8.82,8.82,0,0,0,4.746-4.746,8.673,8.673,0,0,0,.7-3.451V39.883a3.324,3.324,0,0,0-3.338-3.338h-6.676a3.323,3.323,0,0,0-3.338,3.338v6.676A3.219,3.219,0,0,0,256.793,48.924Z" transform="translate(-255.82 -36.545)" fill="#fff"/>
      </g>
    </g>
  </g>
</svg>
