<svg id="instagram_3_" data-name="instagram (3)" xmlns="http://www.w3.org/2000/svg" xmlns:xlink="http://www.w3.org/1999/xlink" width="31" height="31" viewBox="0 0 31 31">
  <defs>
    <radialGradient id="radial-gradient" cx="0.065" cy="0.978" r="1.27" gradientUnits="objectBoundingBox">
      <stop offset="0.09" stop-color="#fa8f21"/>
      <stop offset="0.78" stop-color="#d82d7e"/>
    </radialGradient>
    <radialGradient id="radial-gradient-2" cx="0.693" cy="0.946" r="1.117" gradientUnits="objectBoundingBox">
      <stop offset="0.64" stop-color="#8c3aaa" stop-opacity="0"/>
      <stop offset="1" stop-color="#8c3aaa"/>
    </radialGradient>
  </defs>
  <path id="Path_16" data-name="Path 16" d="M7.861,30.89a10.437,10.437,0,0,1-3.511-.65,5.874,5.874,0,0,1-2.174-1.414A5.829,5.829,0,0,1,.76,26.652a10.437,10.437,0,0,1-.649-3.511C.019,21.148,0,20.55,0,15.5S.02,9.854.11,7.859A10.5,10.5,0,0,1,.76,4.35,5.9,5.9,0,0,1,2.174,2.174,5.837,5.837,0,0,1,4.349.76,10.437,10.437,0,0,1,7.86.11C9.854.019,10.452,0,15.5,0s5.646.02,7.641.11a10.5,10.5,0,0,1,3.511.65,5.852,5.852,0,0,1,2.174,1.414A5.856,5.856,0,0,1,30.24,4.349a10.437,10.437,0,0,1,.65,3.511c.091,1.995.11,2.592.11,7.641s-.019,5.646-.11,7.641a10.485,10.485,0,0,1-.65,3.511,6.261,6.261,0,0,1-3.589,3.588,10.437,10.437,0,0,1-3.511.65c-1.993.091-2.592.11-7.641.11s-5.646-.018-7.639-.11" fill="url(#radial-gradient)"/>
  <path id="Path_17" data-name="Path 17" d="M7.861,30.89a10.437,10.437,0,0,1-3.511-.65,5.874,5.874,0,0,1-2.174-1.414A5.829,5.829,0,0,1,.76,26.652a10.437,10.437,0,0,1-.649-3.511C.019,21.148,0,20.55,0,15.5S.02,9.854.11,7.859A10.5,10.5,0,0,1,.76,4.35,5.9,5.9,0,0,1,2.174,2.174,5.837,5.837,0,0,1,4.349.76,10.437,10.437,0,0,1,7.86.11C9.854.019,10.452,0,15.5,0s5.646.02,7.641.11a10.5,10.5,0,0,1,3.511.65,5.852,5.852,0,0,1,2.174,1.414A5.856,5.856,0,0,1,30.24,4.349a10.437,10.437,0,0,1,.65,3.511c.091,1.995.11,2.592.11,7.641s-.019,5.646-.11,7.641a10.485,10.485,0,0,1-.65,3.511,6.261,6.261,0,0,1-3.589,3.588,10.437,10.437,0,0,1-3.511.65c-1.993.091-2.592.11-7.641.11s-5.646-.018-7.639-.11" fill="url(#radial-gradient-2)"/>
  <path id="Path_18" data-name="Path 18" d="M443.528,451.038a3.839,3.839,0,1,1,3.839,3.839,3.839,3.839,0,0,1-3.839-3.839m-2.075,0a5.914,5.914,0,1,0,5.914-5.914,5.914,5.914,0,0,0-5.914,5.914m10.679-6.148a1.382,1.382,0,1,0,1.383-1.381h0a1.383,1.383,0,0,0-1.382,1.381m-9.418,15.522a6.363,6.363,0,0,1-2.139-.4,3.813,3.813,0,0,1-2.186-2.185,6.359,6.359,0,0,1-.4-2.139c-.056-1.214-.067-1.579-.067-4.654s.012-3.439.067-4.654a6.408,6.408,0,0,1,.4-2.139,3.811,3.811,0,0,1,2.186-2.186,6.36,6.36,0,0,1,2.139-.4c1.214-.056,1.579-.067,4.653-.067s3.439.012,4.654.067a6.408,6.408,0,0,1,2.139.4,3.812,3.812,0,0,1,2.186,2.186,6.358,6.358,0,0,1,.4,2.139c.056,1.216.067,1.579.067,4.654s-.011,3.439-.067,4.654a6.389,6.389,0,0,1-.4,2.139,3.814,3.814,0,0,1-2.186,2.185,6.361,6.361,0,0,1-2.139.4c-1.214.056-1.579.067-4.654.067s-3.439-.011-4.653-.067m-.1-20.821a8.444,8.444,0,0,0-2.8.535,5.888,5.888,0,0,0-3.368,3.368,8.445,8.445,0,0,0-.535,2.8c-.057,1.228-.07,1.62-.07,4.748s.013,3.52.07,4.748a8.445,8.445,0,0,0,.535,2.8,5.888,5.888,0,0,0,3.368,3.368,8.456,8.456,0,0,0,2.8.535c1.229.056,1.621.07,4.748.07s3.52-.013,4.748-.07a8.453,8.453,0,0,0,2.8-.535,5.888,5.888,0,0,0,3.368-3.368,8.422,8.422,0,0,0,.535-2.8c.056-1.229.069-1.62.069-4.748s-.013-3.52-.069-4.748a8.445,8.445,0,0,0-.535-2.8,5.889,5.889,0,0,0-3.367-3.368,8.432,8.432,0,0,0-2.8-.535c-1.228-.056-1.62-.07-4.748-.07s-3.52.013-4.749.07" transform="translate(-431.834 -435.472)" fill="#fff"/>
</svg>
