<svg xmlns="http://www.w3.org/2000/svg" width="16.745" height="22" viewBox="0 0 16.745 22">
  <g id="invoice" transform="translate(-50.526)">
    <g id="Group_30625" data-name="Group 30625" transform="translate(50.526)">
      <path id="Path_50439" data-name="Path 50439" d="M66.725.565a.921.921,0,0,0-1,.152L64.28,2a.1.1,0,0,1-.138,0L62.178.239a.935.935,0,0,0-1.248,0L58.968,1.994a.1.1,0,0,1-.139,0L56.867.239a.935.935,0,0,0-1.248,0L53.655,2a.1.1,0,0,1-.138,0L52.072.718a.929.929,0,0,0-1.546.7V20.581a.93.93,0,0,0,1.548.7L53.518,20a.1.1,0,0,1,.138,0l1.964,1.756a.935.935,0,0,0,1.248,0l1.962-1.755a.1.1,0,0,1,.139,0l1.962,1.755a.935.935,0,0,0,1.248,0L64.143,20a.1.1,0,0,1,.138,0l1.445,1.278a.929.929,0,0,0,1.545-.7V1.419A.921.921,0,0,0,66.725.565Zm-12.756,6.9h5.179a.416.416,0,1,1,0,.832H53.969a.416.416,0,0,1,0-.832Zm9.859,7.072H53.969a.416.416,0,1,1,0-.832h9.859a.416.416,0,0,1,0,.832Zm0-3.12H53.969a.416.416,0,1,1,0-.832h9.859a.416.416,0,0,1,0,.832Z" transform="translate(-50.526 0)" fill="#949494"/>
    </g>
  </g>
</svg>
