<svg xmlns="http://www.w3.org/2000/svg" width="14.505" height="19.633" viewBox="0 0 14.505 19.633">
  <g id="job_location" data-name="job location" transform="translate(0)">
    <g id="Group_30147" data-name="Group 30147" transform="translate(0)">
      <g id="Group_30146" data-name="Group 30146">
        <path id="Path_50260" data-name="Path 50260" d="M55.332,0A7.261,7.261,0,0,0,48.08,7.252a8.367,8.367,0,0,0,.615,2.792,11.7,11.7,0,0,0,.838,1.568l4.973,7.534a.946.946,0,0,0,1.653,0l4.973-7.535a11.647,11.647,0,0,0,.838-1.568,8.365,8.365,0,0,0,.615-2.792A7.261,7.261,0,0,0,55.332,0Zm5.851,9.714a10.715,10.715,0,0,1-.764,1.429l-4.973,7.535c-.1.149-.129.149-.227,0l-4.973-7.535a10.721,10.721,0,0,1-.764-1.43,7.6,7.6,0,0,1-.549-2.461,6.4,6.4,0,1,1,12.8,0A7.6,7.6,0,0,1,61.183,9.714Z" transform="translate(-48.08)" fill="#f96939"/>
        <path id="Path_50261" data-name="Path 50261" d="M115.92,64.008a3.84,3.84,0,1,0,3.84,3.84A3.844,3.844,0,0,0,115.92,64.008Zm0,6.826a2.986,2.986,0,1,1,2.986-2.986A2.99,2.99,0,0,1,115.92,70.834Z" transform="translate(-108.667 -60.595)" fill="#f96939"/>
      </g>
    </g>
  </g>
</svg>
