<svg xmlns="http://www.w3.org/2000/svg" xmlns:xlink="http://www.w3.org/1999/xlink" width="68" height="68" viewBox="0 0 68 68">
  <defs>
    <filter id="adventure" x="0" y="0" width="68" height="68" filterUnits="userSpaceOnUse">
      <feOffset dy="3" input="SourceAlpha"/>
      <feGaussianBlur stdDeviation="3" result="blur"/>
      <feFlood flood-opacity="0.161"/>
      <feComposite operator="in" in2="blur"/>
      <feComposite in="SourceGraphic"/>
    </filter>
  </defs>
  <g id="left" transform="translate(-29 -3318)" opacity="0.56">
    <g transform="matrix(1, 0, 0, 1, 29, 3318)" filter="url(#adventure)">
      <rect id="adventure-2" data-name="adventure" width="50" height="50" rx="25" transform="translate(9 6)"/>
    </g>
    <path id="left-arrow" d="M34.294,22.289H11.487l8.733-8.318a1.143,1.143,0,0,0-1.577-1.656l-9.974,9.5a2.286,2.286,0,0,0,.02,3.253l9.954,9.481a1.143,1.143,0,1,0,1.577-1.655l-8.77-8.318H34.294a1.143,1.143,0,0,0,0-2.286Z" transform="translate(41 3326)" fill="#fff"/>
  </g>
</svg>
