<svg id="man-in-hike" xmlns="http://www.w3.org/2000/svg" width="37.861" height="41.607" viewBox="0 0 37.861 41.607">
  <g id="Group_30242" data-name="Group 30242" transform="translate(0 3.97)">
    <path id="Path_50345" data-name="Path 50345" d="M43.043,121.589l-.188,1.763,4.512,5.361.783-5.782a5.493,5.493,0,0,1,.186-.777Z" transform="translate(-41.11 -115.292)" fill="#fff"/>
    <path id="Path_50346" data-name="Path 50346" d="M37.357,171.971l.236-1.745-4.465-5.305-.66,6.191a2.8,2.8,0,0,0,2.483,3.075l2.668.285A5.45,5.45,0,0,1,37.357,171.971Z" transform="translate(-31.585 -154.965)" fill="#fff"/>
    <path id="Path_50347" data-name="Path 50347" d="M156.94,109.333a2.064,2.064,0,0,0-3.883,1.4l2.5,6.938a2.061,2.061,0,0,0,1.395,1.29l6.493,1.785a2.064,2.064,0,1,0,1.094-3.981l-5.461-1.5Z" transform="translate(-141.893 -102.821)" fill="#fff"/>
    <path id="Path_50348" data-name="Path 50348" d="M121.071,218.545l-.849-5.856a2.411,2.411,0,0,0-1.046-1.658l-3.442-2.3-1.209-.807c.005-.035.012-.08.02-.137l.086-.637-.707-.194a3.442,3.442,0,0,1-2.325-2.149l-.787-2.179-4.226,2.393-.224,1.657a6.856,6.856,0,0,0,.1,2l.98,3.143,1.316,4.221-1.841,7a2.409,2.409,0,1,0,4.659,1.226l2.017-7.669a2.406,2.406,0,0,0-.03-1.33L112.7,212.5l2.911,1.944.695,4.794a2.409,2.409,0,0,0,2.381,2.063,2.445,2.445,0,0,0,.348-.025A2.408,2.408,0,0,0,121.071,218.545Z" transform="translate(-99.226 -189.489)" fill="#fff"/>
    <path id="Path_50349" data-name="Path 50349" d="M210.983,209.625a1.376,1.376,0,0,0-1.927.272l-5.166,6.865a1.384,1.384,0,0,0-.225.454l-2.127,7.523-3.264.466a1.367,1.367,0,0,0-.482.164l-9.449,5.336a1.376,1.376,0,1,0,1.353,2.4l9.224-5.208,3.894-.556a1.376,1.376,0,0,0,1.13-.988l2.3-8.136,5.011-6.659A1.376,1.376,0,0,0,210.983,209.625Z" transform="translate(-173.671 -195.641)" fill="#fff"/>
    <path id="Path_50350" data-name="Path 50350" d="M24.683,52.589l5.008.535.635.068a2.78,2.78,0,0,0,.921-.066,4.086,4.086,0,0,0-.657,1.714l-.812,6,3.52-1.994L32.053,55.4a3.424,3.424,0,0,1,.166-2.7c.052-.036.109-.064.159-.1a2.8,2.8,0,0,0-1.459-4.954l-5.645-.6a2.795,2.795,0,0,0-.591,5.558Z" transform="translate(-22.184 -47.015)" fill="#fff"/>
  </g>
  <circle id="Ellipse_204" data-name="Ellipse 204" cx="4.011" cy="4.011" r="4.011" transform="translate(11.079)" fill="#fff"/>
</svg>
