<svg id="moon" xmlns="http://www.w3.org/2000/svg" width="17.191" height="17.119" viewBox="0 0 17.191 17.119">
  <g id="Group_30576" data-name="Group 30576" transform="translate(0 0)">
    <path id="Path_50427" data-name="Path 50427" d="M16.773,10.407a.6.6,0,0,0-.506.11A6.449,6.449,0,0,1,14.31,11.66a6.127,6.127,0,0,1-2.22.4A6.455,6.455,0,0,1,5.627,5.593a6.775,6.775,0,0,1,.352-2.132,5.9,5.9,0,0,1,1.055-1.89A.561.561,0,0,0,6.946.779a.6.6,0,0,0-.506-.11,8.871,8.871,0,0,0-4.66,3.121,8.7,8.7,0,1,0,15.388,7.3A.533.533,0,0,0,16.773,10.407Z" transform="translate(0 -0.652)" fill="#949494"/>
  </g>
</svg>
