<svg id="placeholder" xmlns="http://www.w3.org/2000/svg" width="12.518" height="17.119" viewBox="0 0 12.518 17.119">
  <g id="Group_30577" data-name="Group 30577" transform="translate(0)">
    <path id="Path_50428" data-name="Path 50428" d="M75.076,0a6.323,6.323,0,0,0-6.259,6.371c0,1.965.994,4.35,2.954,7.089a31.237,31.237,0,0,0,2.907,3.494.56.56,0,0,0,.785.009,28.2,28.2,0,0,0,2.914-3.406c1.962-2.7,2.956-5.116,2.956-7.186A6.323,6.323,0,0,0,75.076,0Zm0,9.122a3.06,3.06,0,1,1,3.06-3.06A3.063,3.063,0,0,1,75.076,9.122Z" transform="translate(-68.817)" fill="#949494"/>
  </g>
</svg>
