<svg id="play-button" xmlns="http://www.w3.org/2000/svg" width="67" height="67" viewBox="0 0 67 67">
  <g id="Group_30186" data-name="Group 30186">
    <g id="Group_30185" data-name="Group 30185">
      <path id="Path_50272" data-name="Path 50272" d="M33.5,0A33.5,33.5,0,1,0,67,33.5,33.538,33.538,0,0,0,33.5,0Zm0,64.208A30.708,30.708,0,1,1,64.208,33.5,30.743,30.743,0,0,1,33.5,64.208Z" fill="#fff"/>
      <path id="Path_50273" data-name="Path 50273" d="M213.693,162.116l-19.542-12.562A1.4,1.4,0,0,0,192,150.727v25.125a1.4,1.4,0,0,0,2.151,1.174l19.542-12.562a1.4,1.4,0,0,0,0-2.347Zm-18.9,11.179v-20.01l15.564,10.005Z" transform="translate(-166.875 -129.79)" fill="#fff"/>
    </g>
  </g>
</svg>
