<svg id="sun-umbrella" xmlns="http://www.w3.org/2000/svg" width="41.999" height="41.998" viewBox="0 0 41.999 41.998">
  <path id="Path_50308" data-name="Path 50308" d="M41.535,338.356c-6.992-5.447-15.126-2.317-23.461-.144L15.1,327.1a2.07,2.07,0,0,0-2.375.646l2.961,11.05c-4.7,1.058-9.431,1.473-13.929-.588a1.23,1.23,0,1,0-1.025,2.237c14.1,6.462,28.9-8.243,39.294-.148a1.23,1.23,0,1,0,1.512-1.941Z" transform="translate(-0.01 -300.14)" fill="#fff"/>
  <path id="Path_50309" data-name="Path 50309" d="M96.307,102.023a15.583,15.583,0,0,1,2.377-.635l-.072-.27a1.23,1.23,0,0,0-2.377.637Z" transform="translate(-88.302 -91.987)" fill="#fff"/>
  <path id="Path_50310" data-name="Path 50310" d="M271.521,108.421h1.308a1.23,1.23,0,0,0,0-2.461h-1.308a1.23,1.23,0,1,0,0,2.461Z" transform="translate(-248.119 -97.269)" fill="#fff"/>
  <ellipse id="Ellipse_203" data-name="Ellipse 203" cx="4.135" cy="4.134" rx="4.135" ry="4.134" transform="translate(27.782 13.893) rotate(-87.707)" fill="#fff"/>
  <path id="Path_50311" data-name="Path 50311" d="M377.284,3.779a1.231,1.231,0,0,0,1.23-1.23V1.24a1.23,1.23,0,0,0-2.461,0V2.549A1.231,1.231,0,0,0,377.284,3.779Z" transform="translate(-345.205 -0.01)" fill="#fff"/>
  <path id="Path_50312" data-name="Path 50312" d="M302.423,34.068a1.23,1.23,0,0,0,1.74-1.74l-.925-.925a1.23,1.23,0,0,0-1.74,1.74Z" transform="translate(-276.435 -28.497)" fill="#fff"/>
  <path id="Path_50313" data-name="Path 50313" d="M302.423,169.96l-.925.925a1.23,1.23,0,1,0,1.74,1.74l.925-.925a1.23,1.23,0,0,0-1.74-1.74Z" transform="translate(-276.435 -155.688)" fill="#fff"/>
  <path id="Path_50314" data-name="Path 50314" d="M376.053,197.19V198.5a1.23,1.23,0,0,0,2.461,0V197.19a1.23,1.23,0,0,0-2.461,0Z" transform="translate(-345.205 -179.886)" fill="#fff"/>
  <path id="Path_50315" data-name="Path 50315" d="M440.051,169.96a1.23,1.23,0,0,0,0,1.74l.925.925a1.23,1.23,0,1,0,1.74-1.74l-.925-.925A1.23,1.23,0,0,0,440.051,169.96Z" transform="translate(-403.623 -155.688)" fill="#fff"/>
  <path id="Path_50316" data-name="Path 50316" d="M466.05,107.19a1.23,1.23,0,0,0,1.23,1.23h1.308a1.23,1.23,0,1,0,0-2.461H467.28A1.23,1.23,0,0,0,466.05,107.19Z" transform="translate(-427.82 -97.269)" fill="#fff"/>
  <path id="Path_50317" data-name="Path 50317" d="M441.791,34.068l.925-.925a1.23,1.23,0,0,0-1.74-1.74l-.925.925a1.23,1.23,0,0,0,1.74,1.74Z" transform="translate(-403.623 -28.497)" fill="#fff"/>
  <path id="Path_50318" data-name="Path 50318" d="M115.042,188.342a4.535,4.535,0,0,1,4.944-1.365,12.891,12.891,0,0,0-5.364-10.1C113.061,180.313,113.006,184.114,115.042,188.342Z" transform="translate(-104.171 -162.369)" fill="#fff"/>
  <path id="Path_50319" data-name="Path 50319" d="M2.711,167.144a4.536,4.536,0,0,1,5.865-1.753,14.173,14.173,0,0,1-1.608-5.2,15.273,15.273,0,0,1,1.8-9.307,13.237,13.237,0,0,0-8.3,15.949,1.231,1.231,0,0,0,2.241.312Z" transform="translate(0 -138.508)" fill="#fff"/>
  <path id="Path_50320" data-name="Path 50320" d="M138.257,148.738a14.459,14.459,0,0,1,1.212,5.38,4.538,4.538,0,0,1,6-1.51,1.231,1.231,0,0,0,1.781-1.393,13.237,13.237,0,0,0-15.216-9.639A15.272,15.272,0,0,1,138.257,148.738Z" transform="translate(-121.204 -129.756)" fill="#fff"/>
</svg>
