<svg xmlns="http://www.w3.org/2000/svg" width="20.727" height="19" viewBox="0 0 20.727 19">
  <g id="text" transform="translate(0 -1)">
    <g id="Group_30518" data-name="Group 30518" transform="translate(3.518 7.909)">
      <path id="Path_50367" data-name="Path 50367" d="M6.88,10.3H4.721a.648.648,0,0,1,0-1.3H6.88a.648.648,0,1,1,0,1.3Z" transform="translate(-4.073 -9)" fill="#f96939"/>
    </g>
    <g id="Group_30519" data-name="Group 30519" transform="translate(9.563 7.909)">
      <path id="Path_50368" data-name="Path 50368" d="M18.2,10.3H11.721a.648.648,0,0,1,0-1.3H18.2a.648.648,0,1,1,0,1.3Z" transform="translate(-11.073 -9)" fill="#f96939"/>
    </g>
    <g id="Group_30520" data-name="Group 30520" transform="translate(3.518 11.364)">
      <path id="Path_50369" data-name="Path 50369" d="M6.88,14.3H4.721a.648.648,0,0,1,0-1.3H6.88a.648.648,0,1,1,0,1.3Z" transform="translate(-4.073 -13)" fill="#f96939"/>
    </g>
    <g id="Group_30521" data-name="Group 30521" transform="translate(9.563 11.364)">
      <path id="Path_50370" data-name="Path 50370" d="M18.2,14.3H11.721a.648.648,0,1,1,0-1.3H18.2a.648.648,0,1,1,0,1.3Z" transform="translate(-11.073 -13)" fill="#f96939"/>
    </g>
    <g id="Group_30522" data-name="Group 30522" transform="translate(3.518 14.818)">
      <path id="Path_50371" data-name="Path 50371" d="M6.88,18.3H4.721a.648.648,0,1,1,0-1.3H6.88a.648.648,0,1,1,0,1.3Z" transform="translate(-4.073 -17)" fill="#f96939"/>
    </g>
    <g id="Group_30523" data-name="Group 30523" transform="translate(9.563 14.818)">
      <path id="Path_50372" data-name="Path 50372" d="M18.2,18.3H11.721a.648.648,0,1,1,0-1.3H18.2a.648.648,0,1,1,0,1.3Z" transform="translate(-11.073 -17)" fill="#f96939"/>
    </g>
    <g id="Group_30524" data-name="Group 30524" transform="translate(0 1)">
      <path id="Path_50373" data-name="Path 50373" d="M18.352,20H2.375A2.377,2.377,0,0,1,0,17.625V3.375A2.377,2.377,0,0,1,2.375,1H18.352a2.377,2.377,0,0,1,2.375,2.375v14.25A2.377,2.377,0,0,1,18.352,20ZM2.375,2.3A1.081,1.081,0,0,0,1.3,3.375v14.25a1.081,1.081,0,0,0,1.08,1.08H18.352a1.081,1.081,0,0,0,1.08-1.08V3.375a1.081,1.081,0,0,0-1.08-1.08Z" transform="translate(0 -1)" fill="#f96939"/>
    </g>
    <g id="Group_30525" data-name="Group 30525" transform="translate(0 4.023)">
      <path id="Path_50374" data-name="Path 50374" d="M20.08,5.8H.648a.648.648,0,1,1,0-1.3H20.08a.648.648,0,0,1,0,1.3Z" transform="translate(0 -4.5)" fill="#f96939"/>
    </g>
  </g>
</svg>
