<svg xmlns="http://www.w3.org/2000/svg" width="28.157" height="26.983" viewBox="0 0 28.157 26.983">
  <g id="thumb" transform="translate(-113 -978)">
    <g id="Group_30289" data-name="Group 30289" transform="translate(113 978)">
      <g id="Group_30288" data-name="Group 30288">
        <path id="Path_50353" data-name="Path 50353" d="M28.157,26.8a2.607,2.607,0,0,0-.764-1.847,2.913,2.913,0,0,0,.751-2.24,3.032,3.032,0,0,0-3.06-2.66H17.837a16.868,16.868,0,0,0,.934-4.693c0-2.545-2.162-4.693-3.52-4.693a3.685,3.685,0,0,0-2.126.714.587.587,0,0,0-.221.459v3.978l-3.38,7.32-.14.072v-.224A.587.587,0,0,0,8.8,22.4H2.933A2.936,2.936,0,0,0,0,25.332v9.386A2.936,2.936,0,0,0,2.933,37.65h3.52a2.94,2.94,0,0,0,2.761-1.939,7.648,7.648,0,0,0,3.105.766H23.087a2.7,2.7,0,0,0,2.658-2.048,2.648,2.648,0,0,0-.211-1.763,2.63,2.63,0,0,0,1.174-3.52A2.629,2.629,0,0,0,28.157,26.8Zm-2.474,1.448a.587.587,0,0,0-.336,1.01,1.453,1.453,0,0,1-.836,2.509.587.587,0,0,0-.336,1.01,1.451,1.451,0,0,1,.425,1.4A1.518,1.518,0,0,1,23.087,35.3H12.319a5.561,5.561,0,0,1-3.1-1,.587.587,0,0,0-1,.415,1.762,1.762,0,0,1-1.76,1.76H2.933a1.762,1.762,0,0,1-1.76-1.76V25.332a1.762,1.762,0,0,1,1.76-1.76H8.212v.587a.589.589,0,0,0,.279.5.6.6,0,0,0,.57.025l1.173-.587a.586.586,0,0,0,.27-.278l3.52-7.626a.6.6,0,0,0,.054-.246V12.158a2.474,2.474,0,0,1,1.173-.318c.643,0,2.346,1.6,2.346,3.52a18.268,18.268,0,0,1-1.134,5.071.586.586,0,0,0,.548.8h8.073a1.852,1.852,0,0,1,1.891,1.594,1.753,1.753,0,0,1-.835,1.66.587.587,0,0,0,.04,1.022,1.452,1.452,0,0,1-.5,2.744Z" transform="translate(0 -10.667)" fill="#f96939"/>
      </g>
    </g>
    <g id="Group_30291" data-name="Group 30291" transform="translate(121.211 990.906)">
      <g id="Group_30290" data-name="Group 30290">
        <path id="Path_50354" data-name="Path 50354" d="M149.92,245.333a.587.587,0,0,0-.587.587v10.559a.587.587,0,0,0,1.173,0V245.92A.587.587,0,0,0,149.92,245.333Z" transform="translate(-149.333 -245.333)" fill="#f96939"/>
      </g>
    </g>
  </g>
</svg>
