<svg xmlns="http://www.w3.org/2000/svg" width="18.797" height="18.797" viewBox="0 0 18.797 18.797">
  <g id="time" transform="translate(18.797) rotate(90)">
    <g id="Group_30141" data-name="Group 30141">
      <g id="Group_30140" data-name="Group 30140">
        <path id="Path_50258" data-name="Path 50258" d="M9.4,0a9.4,9.4,0,1,0,9.4,9.4A9.4,9.4,0,0,0,9.4,0Zm0,17.454A8.056,8.056,0,1,1,17.454,9.4,8.056,8.056,0,0,1,9.4,17.454Z" fill="#f96939"/>
      </g>
    </g>
    <g id="Group_30143" data-name="Group 30143" transform="translate(3.357 3.357)">
      <g id="Group_30142" data-name="Group 30142">
        <path id="Path_50259" data-name="Path 50259" d="M6.042,0a.671.671,0,0,0-.671.671v4.7H.671a.671.671,0,1,0,0,1.343H6.042a.671.671,0,0,0,.671-.671V.671A.671.671,0,0,0,6.042,0Z" fill="#f96939"/>
      </g>
    </g>
  </g>
</svg>
