<svg xmlns="http://www.w3.org/2000/svg" width="19" height="19" viewBox="0 0 19 19">
  <g id="user_3_" data-name="user (3)" transform="translate(0)">
    <g id="Group_30516" data-name="Group 30516" transform="translate(0)">
      <path id="Path_50366" data-name="Path 50366" d="M18.952,16.281a.742.742,0,0,0-1.453.3.776.776,0,0,1-.157.65.754.754,0,0,1-.594.282H2.253a.754.754,0,0,1-.594-.282.775.775,0,0,1-.157-.65A8.2,8.2,0,0,1,9.3,10.09q.1,0,.2,0t.2,0a8.165,8.165,0,0,1,6.594,3.624.742.742,0,1,0,1.233-.827,9.654,9.654,0,0,0-5-3.8,5.047,5.047,0,1,0-6.041,0A9.653,9.653,0,0,0,.049,16.281,2.255,2.255,0,0,0,2.253,19h14.5a2.255,2.255,0,0,0,2.2-2.719ZM5.938,5.047A3.562,3.562,0,1,1,9.681,8.6l-.18,0-.18,0A3.567,3.567,0,0,1,5.938,5.047Z" transform="translate(0)" fill="#f96939"/>
    </g>
  </g>
</svg>
