<svg xmlns="http://www.w3.org/2000/svg" width="23.886" height="14.034" viewBox="0 0 23.886 14.034">
  <g id="video-camera" transform="translate(0 -96.512)">
    <g id="Group_30334" data-name="Group 30334" transform="translate(0 96.512)">
      <g id="Group_30333" data-name="Group 30333" transform="translate(0 0)">
        <path id="Path_50362" data-name="Path 50362" d="M13.511,96.512H2.613A2.621,2.621,0,0,0,0,99.125v8.807a2.621,2.621,0,0,0,2.613,2.613h10.9a2.621,2.621,0,0,0,2.613-2.613V99.125A2.6,2.6,0,0,0,13.511,96.512Z" transform="translate(0 -96.512)" fill="#fff"/>
      </g>
    </g>
    <g id="Group_30336" data-name="Group 30336" transform="translate(17.431 97.907)">
      <g id="Group_30335" data-name="Group 30335" transform="translate(0 0)">
        <path id="Path_50363" data-name="Path 50363" d="M346.025,123.889a1.331,1.331,0,0,0-.444.183l-4.077,2.352v6.063l4.1,2.352a1.554,1.554,0,0,0,2.143-.575,1.6,1.6,0,0,0,.209-.784v-8.075A1.573,1.573,0,0,0,346.025,123.889Z" transform="translate(-341.504 -123.847)" fill="#fff"/>
      </g>
    </g>
  </g>
</svg>
