<svg id="whatsapp" xmlns="http://www.w3.org/2000/svg" width="31" height="31" viewBox="0 0 31 31">
  <rect id="Rectangle_13248" data-name="Rectangle 13248" width="31" height="31" rx="5" fill="#1bd741"/>
  <g id="Group_30688" data-name="Group 30688" transform="translate(4.659 4.647)">
    <path id="Path_50449" data-name="Path 50449" d="M68.494,90.026l1.518-5.393a10.822,10.822,0,1,1,4.043,3.961Zm5.846-3.4.331.2A8.988,8.988,0,1,0,71.778,84l.223.348-.874,3.106Z" transform="translate(-68.494 -68.321)" fill="#fff"/>
    <path id="Path_50450" data-name="Path 50450" d="M150.031,152.865l-.7-.038a.849.849,0,0,0-.6.207,3.2,3.2,0,0,0-1.052,1.613,4.888,4.888,0,0,0,1.134,3.832,11.4,11.4,0,0,0,6.145,4.467,2.994,2.994,0,0,0,2.536-.314,2.268,2.268,0,0,0,.987-1.44l.112-.524a.364.364,0,0,0-.2-.407l-2.374-1.094a.364.364,0,0,0-.441.108l-.932,1.208a.267.267,0,0,1-.3.089,7.3,7.3,0,0,1-3.95-3.38.269.269,0,0,1,.034-.3l.891-1.031a.364.364,0,0,0,.059-.381l-1.023-2.394A.364.364,0,0,0,150.031,152.865Z" transform="translate(-142.217 -147.077)" fill="#fff"/>
  </g>
</svg>
