<svg xmlns="http://www.w3.org/2000/svg" width="42.228" height="41.608" viewBox="0 0 42.228 41.608">
  <g id="XMLID_676_" transform="translate(0)">
    <g id="XMLID_303_">
      <path id="XMLID_308_" d="M246.792,80.048a.831.831,0,0,0-.831.831v6.889a.831.831,0,1,0,1.663,0V80.879A.831.831,0,0,0,246.792,80.048Z" transform="translate(-225.513 -73.703)" fill="#fff"/>
      <path id="XMLID_328_" d="M140.271,224.981a.832.832,0,1,0-.588-.244A.834.834,0,0,0,140.271,224.981Z" transform="translate(-127.847 -205.062)" fill="#fff"/>
      <path id="XMLID_329_" d="M353.271,223.318a.832.832,0,1,0,.588.244A.837.837,0,0,0,353.271,223.318Z" transform="translate(-323.139 -205.062)" fill="#fff"/>
      <path id="XMLID_332_" d="M40.349,14.043a.832.832,0,0,0-1.075.476l-.948,2.456a10.058,10.058,0,0,0-1.188-1.7l-.015-.017L39,10.4A2.4,2.4,0,0,0,35.14,7.764l-2.527,2.3A10.066,10.066,0,0,0,31.334,8.88l2.635-2.4a4.141,4.141,0,0,1,6.6,1.434.831.831,0,1,0,1.529-.652,5.8,5.8,0,0,0-9.246-2.01L29.892,7.944A10.054,10.054,0,0,0,25.157,6.76H17.4a10.054,10.054,0,0,0-4.735,1.184L9.707,5.25A5.8,5.8,0,0,0,.384,11.627L3.313,19.22a10.057,10.057,0,0,0-.356,2.651v1.756h0v3.566A8.965,8.965,0,0,0,8.048,35.28l3.275,1.569A7.939,7.939,0,0,0,13.689,40.3l1.089.923a2.041,2.041,0,0,0,.966.455,6.014,6.014,0,0,0,11.069,0,2.042,2.042,0,0,0,.966-.455l1.089-.923a7.939,7.939,0,0,0,2.365-3.448l3.276-1.569A8.965,8.965,0,0,0,39.6,27.195V21.871a10.057,10.057,0,0,0-.356-2.651l1.583-4.1a.832.832,0,0,0-.477-1.075ZM36.26,8.993a.735.735,0,0,1,.992,0,.752.752,0,0,1,.194.814L35.889,13.84l-2.184-2.518Zm-6.472.822a8.4,8.4,0,0,1,1.712,1.5l1.711,1.973H30.587a1.829,1.829,0,0,1-.8-3.475Zm-17.02,0a1.829,1.829,0,0,1-.8,3.476H9.344l1.711-1.973a8.392,8.392,0,0,1,1.713-1.5ZM4.229,16.975,1.935,11.029a4.14,4.14,0,0,1,6.652-4.55l2.635,2.4a10.054,10.054,0,0,0-1.279,1.188l-2.527-2.3A2.4,2.4,0,0,0,3.558,10.4l1.875,4.859-.015.018a10.065,10.065,0,0,0-1.188,1.7ZM8.85,11.322,6.666,13.84,5.109,9.8A.753.753,0,0,1,5.3,8.99a.736.736,0,0,1,.992,0ZM6.684,20.968A1.831,1.831,0,0,1,4.855,22.8H4.62v-.926a8.393,8.393,0,0,1,.454-2.718A1.831,1.831,0,0,1,6.684,20.968ZM6.173,31.7c-.07-.089-.138-.179-.2-.272A7.259,7.259,0,0,1,4.7,28.287a1.823,1.823,0,0,1,.918-.249h1.25a1.829,1.829,0,1,1,0,3.658Zm10.04,8.33a.38.38,0,0,1-.36-.073l-1.089-.923a6.277,6.277,0,0,1-2.22-4.756A15.614,15.614,0,0,1,19.881,36.5a3.41,3.41,0,0,0,.566.277v1.935Zm2.326-7.7a.905.905,0,0,1,.7-.559,12.8,12.8,0,0,1,4.073,0,.906.906,0,0,1,.7.559.859.859,0,0,1-.109.85,7.716,7.716,0,0,1-2.169,1.953.881.881,0,0,1-.921,0,7.714,7.714,0,0,1-2.169-1.953.859.859,0,0,1-.109-.85Zm2.738,11.351a4.327,4.327,0,0,1-3.833-2.289l3.833-1.19,3.833,1.19a4.326,4.326,0,0,1-3.833,2.289Zm8.7-8.842a6.276,6.276,0,0,1-2.192,4.2l-1.089.923a.38.38,0,0,1-.36.074l-4.233-1.315V36.777a3.414,3.414,0,0,0,.566-.277,15.615,15.615,0,0,1,7.308-2.225Zm3.806-1.051L31.652,34.8c.014-.189.022-.38.022-.571,0-.214-.009-.427-.027-.64a1.831,1.831,0,0,1,1.827-1.741h1.25a1.819,1.819,0,0,1,1.161.415A7.319,7.319,0,0,1,33.789,33.781ZM36.9,30.948a3.472,3.472,0,0,0-2.174-.759h-1.25a3.479,3.479,0,0,0-2.419.977,7.939,7.939,0,0,0-1.11-1.883l-1.327-1.668a4.741,4.741,0,0,1-1.027-2.94V22.22a1.978,1.978,0,0,1,1.975-1.975h2.352a.831.831,0,0,0,0-1.663H29.567a3.642,3.642,0,0,0-3.638,3.638v2.455a6.41,6.41,0,0,0,1.388,3.975l1.327,1.668a6.3,6.3,0,0,1,1.153,2.3,16.985,16.985,0,0,0-4.151.732,2.522,2.522,0,0,0-.088-1.649,2.555,2.555,0,0,0-1.979-1.579,14.46,14.46,0,0,0-4.6,0A2.555,2.555,0,0,0,17,31.7a2.522,2.522,0,0,0-.088,1.649,16.985,16.985,0,0,0-4.152-.733,6.3,6.3,0,0,1,1.154-2.3l1.327-1.668a6.41,6.41,0,0,0,1.388-3.975V22.22a3.642,3.642,0,0,0-3.638-3.638H10.636a.831.831,0,1,0,0,1.663h2.352a1.978,1.978,0,0,1,1.975,1.975v2.455a4.74,4.74,0,0,1-1.027,2.94L12.61,29.283a7.982,7.982,0,0,0-1.729,4.95c0,.191.008.381.021.57L8.767,33.78a7.288,7.288,0,0,1-.956-.552,3.491,3.491,0,0,0-.942-6.853H5.619a3.493,3.493,0,0,0-1,.146V24.459h.235A3.491,3.491,0,0,0,5.786,17.6a8.39,8.39,0,0,1,.888-1.234L7.9,14.953h4.071a3.488,3.488,0,0,0,2.442-5.982A8.393,8.393,0,0,1,17.4,8.422h7.759a8.4,8.4,0,0,1,2.986.549,3.488,3.488,0,0,0,2.443,5.981h4.067l1.228,1.416a8.4,8.4,0,0,1,2.013,4.686h-.738a3.492,3.492,0,0,0,0,6.983h.73a7.244,7.244,0,0,1-.989,2.91Zm1.038-4.572h-.779a1.829,1.829,0,0,1,0-3.658h.779Z" transform="translate(0 -3.728)" fill="#fff"/>
      <path id="XMLID_701_" d="M489.349,85.382a.831.831,0,1,0,.244.588A.838.838,0,0,0,489.349,85.382Z" transform="translate(-447.365 -78.37)" fill="#fff"/>
    </g>
  </g>
</svg>
